mtllib materials.mtl
v -0.001238018 -0.4063244 -0.3467605
v -0.004995883 -0.4081416 0.2832767
v -0.2489467 0.2019663 0.08940029
v -0.5788201 -0.3969067 -0.4652965
v -0.5619522 -0.1860669 -0.1531315
v -0.6824322 -0.398178 0.2597528
v -0.4511236 0.01003742 0.1435637
v -0.3933074 0.1537182 -0.3365866
v -0.02852505 0.01932204 -0.3441228
v -0.1907933 0.4337964 -0.2559683
v 0.0304741 0.5144266 -0.2051275
v -0.07659042 0.4586272 0.04706573
v 0.4100819 -0.2980281 0.1370019
v 0.3441482 0.7408814 0.1711742
v 0.05350769 0.6956536 -0.2092133
v -0.3395956 -0.4145603 -0.1193066
v -0.3804715 0.242717 -0.08150589
v -0.1583534 -0.4291185 0.4200844
v 0.05931306 0.6299441 0.2913535
v 0.1105937 -0.2403194 -0.3613144
v -0.1153175 0.166144 0.4156674
v -0.2110493 0.6390293 -0.1954629
v -0.120699 -0.4078243 0.1359869
v -0.07720599 0.004346251 0.1230739
v -0.4084911 0.02616608 0.03631365
v -0.4774494 -0.4105824 0.3383925
v -0.1259459 -0.1359143 0.3892163
v -0.1341505 -0.4257395 0.3965358
v -0.4109902 -0.4239115 -0.03367805
v -0.440138 -0.2003381 0.2792231
v -0.1788522 -0.4052267 0.1948512
v 0.1601535 -0.4102147 0.04414904
v 0.1795955 0.5161593 0.04761207
v 0.009747267 -0.404417 0.558252
v 0.3361465 0.3126445 0.2985498
v 0.4782768 -0.3968364 0.3818048
v 0.03941447 0.3128216 0.4140824
v -0.000654161 0.4968466 0.122431
v 0.2860792 -0.3915814 0.2964678
v 0.02792087 0.5302303 0.1802843
v 0.4563212 0.5314041 -0.06352603
v 0.273692 0.5342098 -0.3597873
v -0.1547082 0.5330356 -0.1159774
v -0.2990636 -0.3852434 -0.3623267
v 0.714479 -0.3904077 -0.06335533
v 0.2353504 -0.3660629 -0.6161371
v 0.3573526 -0.4087291 0.3850185
v 0.1367722 -0.4177211 0.1027859
v 0.04923224 0.3439034 0.02413428
v 0.539862 0.1456944 0.1199025
v 0.3270255 0.3621144 -0.1847469
v 0.4145654 -0.39951 -0.106095
v 0.2620689 0.1274831 0.3287835
v 0.7050614 -0.3899716 0.168056
v 0.1412383 -0.4031557 -0.2655282
v 0.2123887 0.1935141 -0.06743467
v 0.1351357 0.1729076 -0.414629
v -0.3776084 -0.373841 -0.5485718
v -0.3438298 0.1436273 -0.02818346
v -0.3208134 0.09843469 -0.06084752
v -0.3866281 -0.410911 -0.2038164
v -0.2237124 0.1994696 -0.3055265
v 0.0839847 -0.3737622 -0.6227225
v -0.001193106 -0.134856 -0.5873483
v -0.3006917 -0.3713986 -0.6740607
v -0.03214446 -0.3651979 -0.694426
v -0.5045193 -0.391318 -0.2031454
v -0.4996642 -0.3635653 -0.5479871
vn 0.927779 0.3730716 0.006609751
vn -0.9513645 0.276684 -0.1354682
vn -0.01460295 -0.999889 -0.002970895
vn -0.6615377 0.7365833 0.1407587
vn 0.2009798 0.158262 -0.9667266
vn -0.02338468 0.2942629 0.9554384
vn 0.8992133 0.05495633 0.4340452
vn 0.06543853 0.2320355 -0.9705037
vn -0.01881706 0.004989575 -0.9998105
vn -0.916413 0.3528902 -0.1888274
vn -0.01548937 -0.9998722 -0.003966656
vn -0.02898247 0.2887966 0.9569517
vn 0.8193251 -0.2433701 0.5191122
vn -0.7964422 0.5687311 0.205487
vn -0.3532891 0.9337989 0.0566262
vn -0.8159537 0.5135868 0.2654206
vn 0.8242903 -0.5145983 0.2360808
vn 0.1277585 0.2539335 -0.9587469
vn -0.8888412 0.4572454 0.02979903
vn -0.8701218 0.4928362 -0.000717648
vn 0.7886058 0.07014186 -0.6108854
vn -0.9457319 -0.07697112 0.3157003
vn 0.1822009 -0.9793465 -0.08765464
vn -0.3129247 0.9412239 0.1271837
vn -0.5029872 0.1086608 -0.8574361
vn 0.4459924 -0.001135259 0.895036
vn -0.7532608 0.4578062 0.4722411
vn -0.201069 0.9709409 0.1297874
vn 0.0101105 -0.2803218 -0.9598528
vn 0.3462593 0.1190462 0.9305549
vn -0.7909944 0.4176607 0.4470878
vn -0.8760675 0.06688071 0.4775277
vn 0.4981413 -0.02958407 0.8665912
vn -0.3154941 0.03491635 -0.948285
vn 0.8562033 0.1333336 -0.4991373
vn 0.2309649 -0.940885 -0.2477715
vn 0.2494493 -0.05660912 -0.9667319
vn -0.1656451 0.02958393 0.9857416
vn -0.03212772 -0.9970145 -0.07021262
vn -0.06111314 0.8875829 0.4565763
vn -0.9761815 0.1229283 -0.1787692
vn 0.9983996 -0.0270087 0.04968805
vn -0.9938344 0.02240481 -0.1085878
vn 0.9867161 -0.1001117 0.1279419
vn 0.4948465 0.1308469 -0.8590729
vn 0.03117828 -0.9986584 0.04134513
vn -0.3702782 0.3119571 0.8749725
vn -0.3586404 0.7055664 0.61119
vn -0.406037 0.01193753 -0.9137788
vn 0.3443465 0.1771733 0.9219736
vn -0.01114945 -0.9999057 0.008014393
vn 0.208514 0.8191823 0.5342867
vn -0.9430392 0.2071871 0.2602897
vn 0.8425704 -0.01567071 -0.5383583
vn -0.8803784 0.1281981 0.4566171
vn 0.725034 0.06478623 -0.6856592
vn -0.3835178 0.001618254 -0.9235321
vn 0.1239828 0.8467927 0.517272
vn 0.3576398 0.16979 0.9182947
vn 0.0229461 -0.9995749 0.01798565
vn 0.4795875 0.2406677 0.8438454
vn -0.4729356 0.2968972 -0.8295685
vn -0.00305868 -0.9999716 -0.006903653
vn 0.001960947 0.9999639 0.008260119
vn 0.8289949 0.2320698 -0.5088331
vn -0.8395685 -0.1700978 0.5159374
vn 0.7502421 0.1513154 -0.6436152
vn -0.7465885 -0.06037644 0.6625407
vn 0.6326802 0.1773247 0.753838
vn -0.4214211 0.2649115 -0.8673097
vn 0.01059232 -0.9985301 -0.05315668
vn -0.7872081 -0.02685664 0.6161024
vn 0.8317604 0.03841061 -0.5538043
vn 0.05628676 -0.9983403 -0.01218328
vn 0.2653816 0.8638166 0.4282448
vn 0.5826042 0.1864908 0.7910711
vn -0.5879307 -0.1496685 -0.7949446
vn 0.676717 0.1437895 -0.7220656
vn 0.04549218 -0.9988741 -0.0134508
vn 0.5060932 0.2307842 0.8310285
vn -0.8465953 -0.09552635 0.5235943
vn 0.9761176 -0.04590191 -0.2123382
vn -0.3326654 -0.6578224 0.6757244
vn 0.002115467 -0.9942724 -0.1068543
vn -0.07656343 0.9833452 0.1648343
vn 0.4402923 0.2831381 -0.852042
vn 0.1149354 -0.3079873 0.9444224
vn -0.0126791 -0.9967152 -0.07998738
vn 0.05222537 0.9961265 -0.07074215
vn -0.8786029 0.3659283 -0.3068445
vn 0.09547236 -0.323884 0.9412673
vn -0.2329412 0.4319093 -0.8713167
vn -0.6295966 0.6817273 -0.3726339
vn -0.003277893 -0.9997642 -0.02146761
vn -0.07815263 0.4288696 -0.8999794
vn 0.5167713 0.3028152 -0.8007811
vn 0.01237624 -0.9903092 -0.1383272
vn -0.1930841 0.5438496 -0.8166676
vn -0.0441897 -0.2985412 0.9533732
vn -0.1638535 -0.9831182 -0.08142792
vn -0.9375992 0.3474045 0.01475851
vn 0.05676095 0.7139232 -0.6979197
vn -0.4040005 0.3917217 -0.8266425
vn 0.9865139 -0.03113948 -0.1606879
vn -0.08391213 -0.9905264 -0.1087021
usemtl mat22
f 3//1 2//1 1//1
f 6//2 5//2 4//2
f 2//3 6//3 1//3
f 8//4 7//4 3//4
f 4//5 8//5 1//5
f 3//6 7//6 2//6
f 1//7 9//7 3//7
f 10//8 9//8 8//8
f 8//9 9//9 1//9
f 5//10 8//10 4//10
f 6//11 4//11 1//11
f 7//12 6//12 2//12
f 11//13 3//13 9//13
f 12//14 8//14 3//14
f 12//15 11//15 10//15
f 12//16 10//16 8//16
f 11//17 12//17 3//17
f 10//18 11//18 9//18
f 5//19 7//19 8//19
f 6//20 7//20 5//20
f 15//21 14//21 13//21
f 18//22 17//22 16//22
f 13//23 18//23 16//23
f 19//24 14//24 15//24
f 16//25 15//25 20//25
f 14//26 18//26 13//26
f 22//27 17//27 21//27
f 15//28 22//28 19//28
f 17//29 22//29 15//29
f 14//30 19//30 21//30
f 21//31 19//31 22//31
f 18//32 21//32 17//32
f 14//33 21//33 18//33
f 16//34 17//34 15//34
f 13//35 20//35 15//35
f 16//36 20//36 13//36
f 25//37 24//37 23//37
f 28//38 27//38 26//38
f 23//39 28//39 26//39
f 27//40 24//40 25//40
f 26//41 30//41 29//41
f 27//42 28//42 23//42
f 30//43 25//43 29//43
f 23//44 24//44 27//44
f 23//45 29//45 25//45
f 26//46 29//46 23//46
f 27//47 30//47 26//47
f 25//48 30//48 27//48
f 33//49 32//49 31//49
f 36//50 35//50 34//50
f 32//51 34//51 31//51
f 37//52 35//52 33//52
f 37//53 38//53 31//53
f 33//54 35//54 32//54
f 31//55 34//55 37//55
f 35//56 36//56 32//56
f 31//57 38//57 33//57
f 33//58 38//58 37//58
f 35//59 37//59 34//59
f 32//60 36//60 34//60
f 41//61 40//61 39//61
f 44//62 43//62 42//62
f 39//63 44//63 45//63
f 42//64 43//64 40//64 41//64
f 42//65 41//65 45//65
f 40//66 43//66 39//66
f 45//67 46//67 42//67
f 43//68 44//68 39//68
f 39//69 45//69 41//69
f 42//70 46//70 44//70
f 44//71 46//71 45//71
f 49//72 48//72 47//72
f 52//73 51//73 50//73
f 48//74 52//74 47//74
f 50//75 51//75 49//75 53//75
f 50//76 53//76 47//76
f 49//77 51//77 52//77 48//77
f 50//78 54//78 52//78
f 52//79 54//79 47//79
f 47//80 54//80 50//80
f 47//81 53//81 49//81
f 57//82 56//82 55//82
f 60//83 59//83 58//83
f 55//84 61//84 58//84
f 62//85 59//85 56//85
f 64//86 57//86 63//86
f 59//87 61//87 55//87
f 58//88 63//88 55//88
f 56//89 57//89 62//89
f 59//90 62//90 58//90
f 55//91 56//91 59//91
f 58//92 62//92 57//92
f 65//93 58//93 57//93
f 65//94 63//94 58//94
f 65//95 64//95 66//95
f 63//96 66//96 64//96
f 65//97 66//97 63//97
f 57//98 64//98 65//98
f 67//99 61//99 59//99
f 67//100 68//100 61//100
f 67//101 60//101 68//101
f 68//102 60//102 58//102
f 60//103 67//103 59//103
f 55//104 63//104 57//104
f 68//105 58//105 61//105
